<svg xmlns="http://www.w3.org/2000/svg" aria-hidden="true" style="position:absolute;width:0;height:0;overflow:hidden"><defs><symbol id="task-report-up" viewBox="0 0 32 32"><path d="M15.292 9.292A.991.991 0 0 1 16 8.999a1.002 1.002 0 0 1 .708.293l12 12A1 1 0 0 1 28 23.001a1 1 0 0 1-.708-.293L16 11.414 4.708 22.708A1 1 0 0 1 2.999 22c0-.266.106-.52.293-.708l12-12z"/></symbol><symbol id="task-report-minus" viewBox="0 0 32 32"><path d="M4 16a.997.997 0 0 1 1-1h22a1 1 0 1 1 0 2H5a.997.997 0 0 1-1-1z"/></symbol><symbol id="task-report-down" viewBox="0 0 32 32"><path d="M3.292 9.292A.991.991 0 0 1 4 8.999a1.002 1.002 0 0 1 .708.293L16 20.586 27.292 9.292A.991.991 0 0 1 28 8.999a1.006 1.006 0 0 1 .925.618 1.006 1.006 0 0 1-.217 1.091l-12 12a.991.991 0 0 1-.708.293 1.002 1.002 0 0 1-.708-.293l-12-12A.991.991 0 0 1 2.999 10a1.002 1.002 0 0 1 .293-.708z"/></symbol><symbol id="deshboard-m-m" viewBox="0 0 32 32"><path d="M4 25a.997.997 0 0 1 1-1h22a.997.997 0 0 1 1 1 .997.997 0 0 1-1 1H5a.997.997 0 0 1-1-1zm0-6a.997.997 0 0 1 1-1h22a.997.997 0 0 1 1 1 .997.997 0 0 1-1 1H5a.997.997 0 0 1-1-1zm0-6a.997.997 0 0 1 1-1h22a.997.997 0 0 1 1 1 .997.997 0 0 1-1 1H5a.997.997 0 0 1-1-1zm0-6a.997.997 0 0 1 1-1h22a.997.997 0 0 1 1 1 .997.997 0 0 1-1 1H5a.997.997 0 0 1-1-1z"/></symbol><symbol id="btn-plus" viewBox="0 0 32 32"><path d="M16 0a2 2 0 0 1 2 2v12h12a2 2 0 0 1 0 4H18v12a2 2 0 0 1-4 0V18H2a2 2 0 0 1 0-4h12V2a2 2 0 0 1 2-2z"/></symbol><symbol id="logo" viewBox="0 0 33 32"><path fill="#1c1c24" d="M2.666 9.767S2.172.572 4.17.112s5.445 2.84 5.445 2.84L2.667 9.768zM21.54 3.175S25.229-.498 27.843.114c2.613.612.616 7.873.616 7.873L21.54 3.176z" style="fill:var(--color2, #1c1c24)"/><path fill="#f07f2e" stroke="#1c1c24" stroke-miterlimit="10" stroke-width="0.5565" d="M28.756 26.583c-2.769 2.188-4.621 2.903-7.768 3.755-2.101.568-7.391.54-12.321-1.444-3.454-1.511-4.807-3.154-5.459-4.049-.567-.779-1.722-2.507-1.788-4.397-.096-2.752-.015-5.436 1.248-10.677 1.263-5.242 6.949-6.816 6.949-6.816 6.212-1.467 11.37-.314 13.161 0s6.875 3.534 7.313 9.987c.067.965 1.148 4.397 1.252 7.28.032.884.057 2.061-.383 3.269-.508 1.393-1.641 2.622-2.202 3.092z" style="fill:var(--color3, #f07f2e);stroke:var(--color2, #1c1c24)"/><path fill="#1c1c24" d="M11.634 13.562c.044-.083.094-.162.148-.24l.078-.112.046-.06c.036-.05-.08.096-.007.008a3.231 3.231 0 0 1 .373-.387c.016-.015.099-.081.034-.031s.029-.019.05-.034c.052-.036.107-.07.164-.099.028-.015.057-.028.086-.042.057-.029-.102.032.01-.002.062-.019.124-.034.185-.049.083-.021-.106.003-.02.003.037 0 .075-.005.114-.003.034 0 .068.006.101.006.062 0-.099-.027-.041-.005.013.005.031.005.046.01.036.01.072.018.106.029l.046.016c.096.028-.055-.036-.008-.003.08.053.172.094.254.147a.765.765 0 0 1 .049.036c-.078-.06 0 .002.015.016.044.04.089.079.132.121.218.217.351.406.517.673a.5.5 0 0 0 .667.175.492.492 0 0 0 .176-.664c-.522-.837-1.314-1.684-2.396-1.494-.65.113-1.159.625-1.531 1.135a2.926 2.926 0 0 0-.232.359.493.493 0 0 0 .176.664c.219.125.543.055.667-.176zm14.245-.695a3.475 3.475 0 0 1 .259-.395c.036-.049-.081.099-.008.013.072-.086.145-.17.226-.249.042-.042.086-.083.132-.12.016-.015.098-.079.031-.027s.024-.018.046-.031a1.752 1.752 0 0 1 .237-.135c.057-.029-.107.034.005 0 .059-.018.119-.032.179-.047.081-.019-.109.005-.024.003.036 0 .072-.005.109-.003.033 0 .065.006.098.006.062 0-.102-.028-.046-.005.013.005.029.005.042.008l.101.027c.015.005.029.011.044.015.094.028-.059-.037-.013-.006.076.052.164.089.242.142l.046.034c-.083-.063-.006-.003.01.011.042.039.086.076.127.117.213.212.327.377.493.641a.499.499 0 0 0 .666.175.492.492 0 0 0 .176-.664c-.506-.809-1.271-1.624-2.318-1.441-.629.11-1.118.604-1.479 1.096-.081.11-.158.225-.223.345a.493.493 0 0 0 .176.664c.223.13.546.06.67-.173z" style="fill:var(--color2, #1c1c24)"/><path fill="none" stroke="#1c1c24" stroke-miterlimit="10" stroke-width="0.5565" d="m14.779 17.769-5.045-.162m5.128 1.894-4.38.648m17.586-3.127 5.045-.162m-5.127 1.888 4.38.646m-11.515-.423s2.44 3.364 4.505-.061m-2.232-2.453v3.8" style="stroke:var(--color2, #1c1c24)"/><path fill="#1c1c24" d="M23.079 16.628c1.022 0 1.85-.581 1.85-1.298s-.828-1.298-1.85-1.298c-1.022 0-1.85.581-1.85 1.298s.828 1.298 1.85 1.298z" style="fill:var(--color2, #1c1c24)"/><path fill="#1c1c24" stroke="#1c1c24" stroke-miterlimit="10" stroke-width="0.5565" d="M6.873 14.791c1.64-1.692-3.603-5.242-3.99-5.394-.016-.006-1.491 6.638-1.415 10.638.018.934.195 1.907.195 1.907.307.272.508 1.148 2.807.029 1.286-.627 1.54-1.902.369-2.148-2.252-.471.006-.973-.363-1.863-.932-2.247.671-1.389 2.396-3.168zM29.15 21.39c.19-1.99 2.058-1.428 2.058-1.428.621 3.632-1.552 6.099-3.119 6.962-.38 0-.745-2.22.11-2.504s.761-1.041.951-3.031z" style="fill:var(--color2, #1c1c24);stroke:var(--color2, #1c1c24)"/></symbol><symbol id="icon-3" viewBox="0 0 38 32"><path d="M15.294.471a3.53 3.53 0 0 0-3.53 3.53v1.176H3.529a3.53 3.53 0 0 0-3.53 3.53v18.824a3.53 3.53 0 0 0 3.53 3.53h30.588a3.53 3.53 0 0 0 3.53-3.53V8.707a3.53 3.53 0 0 0-3.53-3.53h-8.235V4.001a3.53 3.53 0 0 0-3.53-3.53h-7.059zm0 2.353h7.059a1.176 1.176 0 0 1 1.177 1.177v1.176h-9.412V4.001a1.176 1.176 0 0 1 1.177-1.177zm4.438 16.268 15.562-4.148V27.53a1.176 1.176 0 0 1-1.177 1.177H3.529a1.176 1.176 0 0 1-1.177-1.177V14.942l15.562 4.151a3.516 3.516 0 0 0 1.816 0zM3.529 7.529h30.588a1.176 1.176 0 0 1 1.177 1.177v3.802l-16.167 4.311a1.179 1.179 0 0 1-.607 0L2.353 12.508V8.706A1.176 1.176 0 0 1 3.53 7.529z"/></symbol><symbol id="btn-minus" viewBox="0 0 32 32"><path d="M8 16a.997.997 0 0 1 1-1h14a.997.997 0 0 1 1 1 .997.997 0 0 1-1 1H9a.997.997 0 0 1-1-1z"/></symbol><symbol id="btn-success" viewBox="0 0 32 32"><path d="M27.708 7.292a1.01 1.01 0 0 1 .294.708 1.006 1.006 0 0 1-.294.708l-14 14a.991.991 0 0 1-.708.293 1.002 1.002 0 0 1-.708-.293l-7-7A1 1 0 0 1 6 13.999a1 1 0 0 1 .708.293L13 20.586 26.292 7.292A.991.991 0 0 1 27 6.999a1.002 1.002 0 0 1 .708.293z"/></symbol><symbol id="icon-2" viewBox="0 0 40 32"><path d="M15 16a7.497 7.497 0 0 0 7.5-7.5A7.497 7.497 0 0 0 15 1a7.497 7.497 0 0 0-7.5 7.5A7.497 7.497 0 0 0 15 16zm5-7.5a4.997 4.997 0 0 1-5 5 4.997 4.997 0 0 1-5-5 4.997 4.997 0 0 1 5-5 4.997 4.997 0 0 1 5 5zm10 20c0 2.5-2.5 2.5-2.5 2.5h-25S0 31 0 28.5s2.5-10 15-10 15 7.5 15 10zm-2.5-.01c-.003-.615-.385-2.465-2.08-4.16C23.79 22.7 20.722 21 15 21c-5.725 0-8.79 1.7-10.42 3.33-1.695 1.695-2.075 3.545-2.08 4.16h25zM33.75 8.5A1.252 1.252 0 0 1 35 9.75v3.75h3.75A1.252 1.252 0 0 1 40 14.75 1.252 1.252 0 0 1 38.75 16H35v3.75A1.252 1.252 0 0 1 33.75 21a1.252 1.252 0 0 1-1.25-1.25V16h-3.75a1.252 1.252 0 0 1-1.25-1.25 1.252 1.252 0 0 1 1.25-1.25h3.75V9.75a1.252 1.252 0 0 1 1.25-1.25z"/></symbol><symbol id="close" viewBox="0 0 32 32"><path d="M4.292 5.708A.991.991 0 0 1 3.999 5a1.006 1.006 0 0 1 .618-.925 1.01 1.01 0 0 1 .766 0c.121.05.232.124.325.217L16 14.586 26.292 4.292A.991.991 0 0 1 27 3.999a1.002 1.002 0 0 1 .708 1.709L17.414 16l10.294 10.292a.991.991 0 0 1 .293.708 1.006 1.006 0 0 1-.618.925 1.01 1.01 0 0 1-.766 0 1.002 1.002 0 0 1-.325-.217L16 17.414 5.708 27.708a.991.991 0 0 1-.708.293 1.006 1.006 0 0 1-.925-.618 1.01 1.01 0 0 1 0-.766c.05-.121.124-.232.217-.325L14.586 16 4.292 5.708z"/></symbol><symbol id="deshboard-d-bell" viewBox="0 0 29 32"><path d="M14.4 32a4.003 4.003 0 0 0 4-4h-8a4.003 4.003 0 0 0 4 4zm0-28.164-1.594.322A8.005 8.005 0 0 0 6.4 12c0 1.256-.268 4.394-.918 7.484-.32 1.534-.752 3.132-1.326 4.516h20.488c-.574-1.384-1.004-2.98-1.326-4.516-.65-3.09-.918-6.228-.918-7.484a7.998 7.998 0 0 0-6.406-7.84L14.4 3.836zM26.84 24c.446.894.962 1.602 1.56 2H.4c.598-.398 1.114-1.106 1.56-2 1.8-3.6 2.44-10.24 2.44-12 0-4.84 3.44-8.88 8.01-9.802a2 2 0 1 1 3.98 0A10.002 10.002 0 0 1 24.4 12c0 1.76.64 8.4 2.44 12z"/></symbol><symbol id="dashboard-d-in" viewBox="0 0 32 32"><path d="M23.484 20.688a13 13 0 1 0-2.794 2.796h-.002c.06.08.124.156.196.23l7.7 7.7a2 2 0 0 0 2.83-2.828l-7.7-7.7a2.069 2.069 0 0 0-.23-.198zM24 13a10.998 10.998 0 0 1-18.778 7.779A10.988 10.988 0 0 1 2 13a11 11 0 0 1 22 0z"/></symbol><symbol id="icon-11" viewBox="0 0 32 32"><path d="M16 9.508a6.49 6.49 0 1 0 6.492 6.49A6.49 6.49 0 0 0 16 9.506zM11.508 16A4.489 4.489 0 0 1 16 11.508 4.489 4.489 0 0 1 20.492 16 4.489 4.489 0 0 1 16 20.492 4.489 4.489 0 0 1 11.508 16z"/><path d="M19.592 2.686c-1.054-3.58-6.13-3.58-7.184 0l-.188.638a1.754 1.754 0 0 1-1.006 1.12 1.756 1.756 0 0 1-1.504-.079l-.584-.32c-3.28-1.784-6.866 1.804-5.08 5.082l.318.584a1.746 1.746 0 0 1-1.041 2.51l-.638.188c-3.58 1.054-3.58 6.13 0 7.184l.638.188a1.754 1.754 0 0 1 1.12 1.006 1.756 1.756 0 0 1-.079 1.504l-.32.584c-1.784 3.28 1.802 6.868 5.082 5.08l.584-.318a1.746 1.746 0 0 1 2.51 1.04l.188.638c1.054 3.58 6.13 3.58 7.184 0l.188-.638a1.754 1.754 0 0 1 1.006-1.12 1.74 1.74 0 0 1 1.504.08l.584.32c3.28 1.786 6.868-1.804 5.08-5.082l-.318-.584a1.746 1.746 0 0 1 1.04-2.51l.638-.188c3.58-1.054 3.58-6.13 0-7.184l-.638-.188a1.754 1.754 0 0 1-1.12-1.006 1.74 1.74 0 0 1 .08-1.504l.32-.584c1.786-3.28-1.804-6.866-5.082-5.08l-.584.318a1.746 1.746 0 0 1-2.51-1.041l-.188-.638zm-5.266.566c.492-1.67 2.856-1.67 3.348 0l.188.638a3.748 3.748 0 0 0 5.385 2.23l.582-.32c1.528-.83 3.2.84 2.368 2.37l-.318.584a3.756 3.756 0 0 0-.171 3.225 3.738 3.738 0 0 0 2.402 2.159l.636.188c1.67.492 1.67 2.856 0 3.348l-.638.188a3.748 3.748 0 0 0-2.23 5.385l.32.582c.83 1.528-.84 3.2-2.37 2.368l-.582-.318a3.76 3.76 0 0 0-3.227-.171 3.75 3.75 0 0 0-2.159 2.403l-.188.636c-.492 1.67-2.856 1.67-3.348 0l-.188-.638a3.737 3.737 0 0 0-2.16-2.401 3.755 3.755 0 0 0-3.225.171l-.584.32c-1.528.83-3.2-.84-2.368-2.37l.318-.582c.268-.491.423-1.036.452-1.594s-.066-1.116-.279-1.633a3.745 3.745 0 0 0-2.404-2.161l-.638-.188c-1.67-.492-1.67-2.856 0-3.348l.638-.188a3.742 3.742 0 0 0 2.229-5.382l-.32-.584c-.83-1.528.84-3.2 2.37-2.368l.584.318a3.756 3.756 0 0 0 3.225.171 3.748 3.748 0 0 0 2.16-2.401l.188-.638z"/></symbol><symbol id="icon-10" viewBox="0 0 32 32"><path fill="#fc5a5a" d="M4.292 5.708A.991.991 0 0 1 3.999 5a1.006 1.006 0 0 1 .618-.925 1.01 1.01 0 0 1 .766 0c.121.05.232.124.325.217L16 14.586 26.292 4.292A.991.991 0 0 1 27 3.999a1.006 1.006 0 0 1 .925.618 1.006 1.006 0 0 1-.217 1.091L17.414 16l10.294 10.292a.991.991 0 0 1 .293.708 1.006 1.006 0 0 1-.618.925 1.006 1.006 0 0 1-1.091-.217L16 17.414 5.708 27.708a.991.991 0 0 1-.708.293 1.006 1.006 0 0 1-.925-.618 1.006 1.006 0 0 1 .217-1.091L14.586 16 4.292 5.708z" style="fill:var(--color5, #fc5a5a)"/></symbol><symbol id="icon-9" viewBox="0 0 32 32"><path d="M16 6a10.006 10.006 0 0 0-9.594 7.19 10.005 10.005 0 0 0 4.201 11.229 10.005 10.005 0 0 0 11.957-.871 10.003 10.003 0 0 0 2.528-11.719c-.098-.239-.1-.506-.006-.747s.279-.435.513-.542a.999.999 0 0 1 1.309.455 12 12 0 1 1-10.907-6.994v2z"/><path d="M16 8.932V1.068a.498.498 0 0 1 .82-.383l4.72 3.932a.5.5 0 0 1 0 .768l-4.72 3.932a.498.498 0 0 1-.82-.383z"/></symbol><symbol id="icon-8" viewBox="0 0 32 32"><path d="M10 21a.997.997 0 0 1 1-1h4a.997.997 0 0 1 1 1 .997.997 0 0 1-1 1h-4a.997.997 0 0 1-1-1zm0-4a.997.997 0 0 1 1-1h10a.997.997 0 0 1 1 1 .997.997 0 0 1-1 1H11a.997.997 0 0 1-1-1zm0-4a.997.997 0 0 1 1-1h10a.997.997 0 0 1 1 1 .997.997 0 0 1-1 1H11a.997.997 0 0 1-1-1zm0-4a.997.997 0 0 1 1-1h10a.997.997 0 0 1 1 1 .997.997 0 0 1-1 1H11a.997.997 0 0 1-1-1z"/><path d="M6 0h20a4.003 4.003 0 0 1 4 4v24a4.003 4.003 0 0 1-4 4H6a4.003 4.003 0 0 1-4-4v-2h2v2a2 2 0 0 0 2 2h20a2 2 0 0 0 2-2V4a2 2 0 0 0-2-2H6a2 2 0 0 0-2 2v2H2V4a4.003 4.003 0 0 1 4-4z"/><path d="M2 10V9a.997.997 0 0 1 1-1 .997.997 0 0 1 1 1v1h1a.997.997 0 0 1 1 1 .997.997 0 0 1-1 1H1a.997.997 0 0 1-1-1 .997.997 0 0 1 1-1h1zm0 6v-1a.997.997 0 0 1 1-1 .997.997 0 0 1 1 1v1h1a.997.997 0 0 1 1 1 .997.997 0 0 1-1 1H1a.997.997 0 0 1-1-1 .997.997 0 0 1 1-1h1zm0 6v-1a.997.997 0 0 1 1-1 .997.997 0 0 1 1 1v1h1a.997.997 0 0 1 1 1 .997.997 0 0 1-1 1H1a.997.997 0 0 1-1-1 .997.997 0 0 1 1-1h1z"/></symbol><symbol id="icon-7" viewBox="0 0 32 32"><path d="M7 0a.997.997 0 0 1 1 1v1h16V1a.997.997 0 0 1 1-1 .997.997 0 0 1 1 1v1h2a4.003 4.003 0 0 1 4 4v22a4.003 4.003 0 0 1-4 4H4a4.003 4.003 0 0 1-4-4V6a4.003 4.003 0 0 1 4-4h2V1a.997.997 0 0 1 1-1zM4 4a2 2 0 0 0-2 2v2h28V6a2 2 0 0 0-2-2H4zm26 6H2v18a2 2 0 0 0 2 2h24a2 2 0 0 0 2-2V10z"/><path d="M18 15a.997.997 0 0 1 1-1h11v4H19a.997.997 0 0 1-1-1v-2zm-4 6v2a.997.997 0 0 1-1 1H2v-4h11a.997.997 0 0 1 1 1z"/></symbol><symbol id="icon-6" viewBox="0 0 32 32"><path d="M0 8a4.003 4.003 0 0 1 4-4h24a4.003 4.003 0 0 1 4 4v16a4.003 4.003 0 0 1-4 4H4a4.003 4.003 0 0 1-4-4V8zm4-2a2 2 0 0 0-2 2v.434l14 8.4 14-8.4V8a2 2 0 0 0-2-2H4zm26 4.766-9.416 5.65L30 22.21V10.766zm-.068 13.752-11.28-6.942L16 19.166l-2.652-1.59-11.28 6.94A2 2 0 0 0 4 26h24a2.003 2.003 0 0 0 1.932-1.482zM2 22.21l9.416-5.794L2 10.766V22.21z"/></symbol><symbol id="icon-5" viewBox="0 0 32 32"><path d="M21.708 14.292a.991.991 0 0 1 .293.708 1.002 1.002 0 0 1-.293.708l-6 6a.991.991 0 0 1-.708.293 1.002 1.002 0 0 1-.708-.293l-3-3a.991.991 0 0 1-.293-.708 1.006 1.006 0 0 1 .293-.708 1 1 0 0 1 1.416 0L15 19.586l5.292-5.294a.991.991 0 0 1 .708-.293 1.006 1.006 0 0 1 .708.293z"/><path d="M8 3H6a4.003 4.003 0 0 0-4 4v21a4.003 4.003 0 0 0 4 4h20a4.003 4.003 0 0 0 4-4V7a4.003 4.003 0 0 0-4-4h-2v2h2a2 2 0 0 1 2 2v21a2 2 0 0 1-2 2H6a2 2 0 0 1-2-2V7a2 2 0 0 1 2-2h2V3z"/><path d="M19 2a.997.997 0 0 1 1 1v2a.997.997 0 0 1-1 1h-6a.997.997 0 0 1-1-1V3a.997.997 0 0 1 1-1h6zm-6-2a3.004 3.004 0 0 0-3 3v2a3.004 3.004 0 0 0 3 3h6a3.004 3.004 0 0 0 3-3V3a3.004 3.004 0 0 0-3-3h-6z"/></symbol><symbol id="icon-4" viewBox="0 0 32 32"><path d="M11 19.022c.152 1.908 1.66 3.394 4.364 3.57V24h1.2v-1.418c2.8-.196 4.436-1.692 4.436-3.864 0-1.974-1.252-2.992-3.49-3.52l-.946-.224V11.14c1.2.136 1.964.792 2.148 1.7h2.104c-.152-1.838-1.728-3.276-4.252-3.432V8h-1.2v1.438c-2.39.234-4.02 1.672-4.02 3.706 0 1.8 1.212 2.944 3.226 3.414l.794.196v4.068c-1.23-.186-2.044-.86-2.228-1.8H11zm4.354-4.332c-1.18-.274-1.82-.832-1.82-1.672 0-.94.69-1.644 1.83-1.85v3.52l-.01.002zm1.384 2.386c1.434.332 2.096.87 2.096 1.82 0 1.084-.824 1.828-2.27 1.964v-3.824l.174.04z"/><path d="M16 30a14 14 0 1 1 0-28 14 14 0 0 1 0 28zm0 2a16.003 16.003 0 0 0 16-16A15.997 15.997 0 0 0 16 0 15.997 15.997 0 0 0 0 16a16.003 16.003 0 0 0 16 16z"/><path d="M16 27a11 11 0 1 1 0-22 11 11 0 0 1 0 22zm0 1a12 12 0 1 0 .002-24.003A12 12 0 0 0 16 28.002z"/></symbol><symbol id="icon-1" viewBox="0 0 32 32"><path d="M12 2v6H2V2h10zM2 0a2 2 0 0 0-2 2v6a2 2 0 0 0 2 2h10a2 2 0 0 0 2-2V2a2 2 0 0 0-2-2H2zm28 24v6H20v-6h10zm-10-2a2 2 0 0 0-2 2v6a2 2 0 0 0 2 2h10a2 2 0 0 0 2-2v-6a2 2 0 0 0-2-2H20zm-8-6v14H2V16h10zM2 14a2 2 0 0 0-2 2v14a2 2 0 0 0 2 2h10a2 2 0 0 0 2-2V16a2 2 0 0 0-2-2H2zM30 2v14H20V2h10zM20 0a2 2 0 0 0-2 2v14a2 2 0 0 0 2 2h10a2 2 0 0 0 2-2V2a2 2 0 0 0-2-2H20z"/></symbol><symbol id="bi_bell" viewBox="0 0 32 32"><path d="M16 32a4.003 4.003 0 0 0 4-4h-8a4.003 4.003 0 0 0 4 4zm0-28.164-1.594.322A8.005 8.005 0 0 0 8 12c0 1.256-.268 4.394-.918 7.484-.32 1.534-.752 3.132-1.326 4.516h20.488c-.574-1.384-1.004-2.98-1.326-4.516C24.268 16.394 24 13.256 24 12a7.998 7.998 0 0 0-6.406-7.84L16 3.836zM28.44 24c.446.894.962 1.602 1.56 2H2c.598-.398 1.114-1.106 1.56-2C5.36 20.4 6 13.76 6 12c0-4.84 3.44-8.88 8.01-9.802a2 2 0 1 1 3.98 0A10.002 10.002 0 0 1 26 12c0 1.76.64 8.4 2.44 12z"/></symbol></defs></svg>